# xmcd
#
# Track frame offsets:
#	183
#	15015
#	28810
#	43483
#	59888
#	91863
#	107655
#	126918
#	146928
#
# Disc length: 2199 seconds
#
# Revision: 3
# Processed by: cddbd v1.5.1PL2 Copyright (c) Steve Scherf et al.
# Submitted via: audiograbber 1.83.01
#
DISCID=80089509
DTITLE=Taj Mahal - The Natch'l Blues
DYEAR=1987
DGENRE=Blues
TTITLE0=Good Morning Miss Brown
TTITLE1=Corinna
TTITLE2=I Ain't Gonna Let Nobody Steal My Jellyroll
TTITLE3=Going Up To The Country, Paint My Mailbox Blue
TTITLE4=Done Changed My Way Of Living
TTITLE5=She Caught The Katy And left Me A Mule To Ride
TTITLE6=The Cuckoo
TTITLE7=You Don't Miss Your Water ('Till Your Well Runs Dry)
TTITLE8=A Lot Of Love
EXTD=
EXTT0=
EXTT1=
EXTT2=
EXTT3=
EXTT4=
EXTT5=
EXTT6=
EXTT7=
EXTT8=
PLAYORDER=
